<svg xmlns="http://www.w3.org/2000/svg" xmlns:xlink="http://www.w3.org/1999/xlink" viewBox="0 0 800 249.31"><defs><style>.cls-1{fill:url(#linear-gradient);}.cls-2{fill:url(#linear-gradient-2);}.cls-3{fill:#333;}</style><linearGradient id="linear-gradient" x1="47.02" y1="202.86" x2="163.6" y2="84.4" gradientUnits="userSpaceOnUse"><stop offset="0" stop-color="#f15a24"/><stop offset="0.29" stop-color="#ed1c24"/></linearGradient><linearGradient id="linear-gradient-2" y1="124.65" x2="166.2" y2="124.65" gradientUnits="userSpaceOnUse"><stop offset="0" stop-color="#f15a24"/><stop offset="1" stop-color="#f7931e"/></linearGradient></defs><title>logotype</title><g id="Layer_2" data-name="Layer 2"><g id="Layer_1-2" data-name="Layer 1"><polygon class="cls-1" points="166.2 249.31 83.1 166.2 0 249.31 0 83.1 166.2 83.1 166.2 249.31"/><path class="cls-2" d="M166.2,249.31,0,83.1V3.32A3.32,3.32,0,0,1,3.32,0H162.88a3.32,3.32,0,0,1,3.32,3.32Z"/><path class="cls-3" d="M209.42,166.21V89.83h17l3.16,9.64q10.8-10.35,21.87-10.35c4.12,0,7,.28,8.48.86V109.4a108.74,108.74,0,0,0-11.07-.44,30.74,30.74,0,0,0-11.29,1.8,18.11,18.11,0,0,0-8,6.69v48.76Z"/><path class="cls-3" d="M268.24,127.66a94,94,0,0,1,1.23-16.61A39.16,39.16,0,0,1,273,100a15.81,15.81,0,0,1,6.47-6.68,29.1,29.1,0,0,1,9.28-3.17,80,80,0,0,1,12.88-.86q5.17,0,8.77.22a63.2,63.2,0,0,1,7.26.86,20.11,20.11,0,0,1,6,1.87,19.87,19.87,0,0,1,4.46,3.31,14.71,14.71,0,0,1,3.38,5,31.52,31.52,0,0,1,1.87,7A61.08,61.08,0,0,1,334,117q0,10.07-5.33,14.67t-16,4.6H288.38c0,4.42.65,7.7,1.94,9.86a8,8,0,0,0,4.89,3.95,43,43,0,0,0,9.28.72q17.7,0,28.05-1.58v13.67q-10.79,4-39.12,4a29.82,29.82,0,0,1-12.16-2.16,16.8,16.8,0,0,1-7.7-7,35.5,35.5,0,0,1-4.09-12.09A109.32,109.32,0,0,1,268.24,127.66Zm20.14-5.89h19.13q6.33,0,6.33-5.76,0-7.19-1.94-9.28c-1.3-1.38-4.34-2.08-9.14-2.08a47,47,0,0,0-6.83.36,9.31,9.31,0,0,0-4.31,2,8.22,8.22,0,0,0-2.74,5.11A48.92,48.92,0,0,0,288.38,121.77Z"/><path class="cls-3" d="M342.75,146.79V139.6a25.06,25.06,0,0,1,1.22-8,20,20,0,0,1,3.82-6.62,16.76,16.76,0,0,1,7-4.68,29.65,29.65,0,0,1,10.43-1.65c3.74,0,7.45,0,11.15.07s7.45,0,11.29-.07a34.58,34.58,0,0,0,0-4.89,15.34,15.34,0,0,0-.65-4.89,5.71,5.71,0,0,0-2.09-2.88,7.62,7.62,0,0,0-3.16-1.29,27.09,27.09,0,0,0-4.31-.29q-9.36,0-32.08,1.58V93.58q12.8-5,34.81-5.18,13.23,0,20.42,5.53T407.76,113v53.22h-16l-4.17-8.34A13.65,13.65,0,0,1,384,161a42.28,42.28,0,0,1-8.7,4.17,29.14,29.14,0,0,1-10.93,2q-10.36-.3-16-6.26A19.83,19.83,0,0,1,342.75,146.79Zm20.14-2.87c0,2.87.62,4.77,1.87,5.68a8.9,8.9,0,0,0,5.32,1.37,20,20,0,0,0,3.6-.36,33.54,33.54,0,0,0,3.52-.87c1.1-.33,2.18-.72,3.24-1.15s2-.86,2.87-1.29,1.61-.82,2.23-1.15,1.32-.75,2.09-1.23V131l-18.56,1.44a7.16,7.16,0,0,0-3.16.93,5.32,5.32,0,0,0-1.94,1.95,7.64,7.64,0,0,0-.87,2.3,14.52,14.52,0,0,0-.21,2.59Z"/><path class="cls-3" d="M418.41,128.38q0-7.91.57-13.59a55.86,55.86,0,0,1,2.16-10.86,22.61,22.61,0,0,1,4.32-8.34,19,19,0,0,1,7.19-5,27.55,27.55,0,0,1,10.64-1.87,53,53,0,0,1,7.34.58A69.68,69.68,0,0,1,458.9,91a44.74,44.74,0,0,1,7.55,2.74V53.3h20.14V166.21H469.9l-3.45-7.77a40.17,40.17,0,0,1-10.5,6.05,33.33,33.33,0,0,1-12.66,2.59,29.57,29.57,0,0,1-5.18-.44,21.48,21.48,0,0,1-8.41-3.38,15.8,15.8,0,0,1-3.24-2.94,34.67,34.67,0,0,1-2.66-3.67,22.76,22.76,0,0,1-2.09-4.32,48.75,48.75,0,0,1-1.5-5,46.13,46.13,0,0,1-1-5.76q-.36-3.09-.58-6.32T418.41,128.38Zm20.14-.72q0,12.24,2.44,17.19t7.62,5a37.49,37.49,0,0,0,9.85-1.22,29.14,29.14,0,0,0,8-3.38V107.38a25.92,25.92,0,0,0-4.1-1.36c-1.39-.34-2.81-.63-4.25-.87s-2.94-.4-4.53-.5-3.23-.15-5-.15A10.8,10.8,0,0,0,445,105a6.65,6.65,0,0,0-2.74,2,11.31,11.31,0,0,0-2.08,4,34.15,34.15,0,0,0-1.22,6.62A96.93,96.93,0,0,0,438.55,127.66Z"/><path class="cls-3" d="M499.53,139V53.59h20.14v82.27c0,5.09.52,8.63,1.58,10.65a9,9,0,0,0,5,4.31q8.64,3,9.64,3v12.37H519.24a22.36,22.36,0,0,1-8.35-1.44,15.4,15.4,0,0,1-6.18-4.53,20.36,20.36,0,0,1-3.88-8.41A54.49,54.49,0,0,1,499.53,139Z"/><path class="cls-3" d="M542.39,146.79V139.6a24.78,24.78,0,0,1,1.23-8,19.79,19.79,0,0,1,3.81-6.62,16.82,16.82,0,0,1,7-4.68,29.65,29.65,0,0,1,10.43-1.65c3.74,0,7.46,0,11.15.07s7.45,0,11.29-.07a34.58,34.58,0,0,0,0-4.89,15.34,15.34,0,0,0-.65-4.89,5.75,5.75,0,0,0-2.08-2.88,7.66,7.66,0,0,0-3.17-1.29,27.09,27.09,0,0,0-4.31-.29q-9.36,0-32.08,1.58V93.58q12.79-5,34.81-5.18,13.23,0,20.42,5.53t7.2,19.06v53.22h-16l-4.17-8.34A13.65,13.65,0,0,1,583.6,161a42.28,42.28,0,0,1-8.7,4.17,29.14,29.14,0,0,1-10.93,2q-10.37-.3-16-6.26A19.83,19.83,0,0,1,542.39,146.79Zm20.14-2.87c0,2.87.62,4.77,1.87,5.68a8.9,8.9,0,0,0,5.32,1.37,20,20,0,0,0,3.6-.36,33.54,33.54,0,0,0,3.52-.87c1.1-.33,2.18-.72,3.24-1.15s2-.86,2.87-1.29,1.61-.82,2.23-1.15,1.32-.75,2.09-1.23V131l-18.55,1.44a7.17,7.17,0,0,0-3.17.93,5.4,5.4,0,0,0-1.94,1.95,7.35,7.35,0,0,0-.86,2.3,13.6,13.6,0,0,0-.22,2.59Z"/><path class="cls-3" d="M614.88,105.08V93.86l12.37-4.17,3.31-21.29h16.83V89.69h17.12v15.39H647.39v30.64a34.61,34.61,0,0,0,.86,8.56,9.75,9.75,0,0,0,2.16,4.46,11.05,11.05,0,0,0,3.45,2.08q8.64,3,9.64,3v12.37H646q-8.91,0-13.81-6.4t-4.89-20.93v-33.8Z"/><path class="cls-3" d="M672.85,127.66a95.12,95.12,0,0,1,1.22-16.61A38.83,38.83,0,0,1,677.6,100a15.81,15.81,0,0,1,6.47-6.68,29,29,0,0,1,9.27-3.17,80.21,80.21,0,0,1,12.88-.86q5.17,0,8.77.22a63.37,63.37,0,0,1,7.27.86,20.31,20.31,0,0,1,6,1.87,19.87,19.87,0,0,1,4.46,3.31,14.83,14.83,0,0,1,3.37,5,31,31,0,0,1,1.87,7,59.85,59.85,0,0,1,.65,9.42q0,10.07-5.32,14.67t-16,4.6H693c0,4.42.64,7.7,1.94,9.86a7.93,7.93,0,0,0,4.89,3.95,42.81,42.81,0,0,0,9.27.72q17.7,0,28-1.58v13.67q-10.78,4-39.12,4a29.76,29.76,0,0,1-12.15-2.16,16.75,16.75,0,0,1-7.7-7,35.29,35.29,0,0,1-4.1-12.09A110.58,110.58,0,0,1,672.85,127.66ZM693,121.77h19.13q6.32,0,6.32-5.76c0-4.79-.64-7.88-1.94-9.28s-4.34-2.08-9.13-2.08a46.85,46.85,0,0,0-6.83.36,9.34,9.34,0,0,0-4.32,2,8.17,8.17,0,0,0-2.73,5.11A48.92,48.92,0,0,0,693,121.77Z"/><path class="cls-3" d="M749.51,166.21V89.83h17l3.17,9.64q10.79-10.35,21.86-10.35c4.12,0,7,.28,8.49.86V109.4a109,109,0,0,0-11.08-.44,30.78,30.78,0,0,0-11.29,1.8,18,18,0,0,0-8,6.69v48.76Z"/></g></g></svg>